<?xml version="1.0" encoding="utf-8"?>
<!-- Generator: Adobe Illustrator 16.0.0, SVG Export Plug-In . SVG Version: 6.00 Build 0)  -->
<!DOCTYPE svg PUBLIC "-//W3C//DTD SVG 1.1//EN" "http://www.w3.org/Graphics/SVG/1.1/DTD/svg11.dtd">
<svg version="1.1" id="Layer_1" xmlns="http://www.w3.org/2000/svg" xmlns:xlink="http://www.w3.org/1999/xlink" x="0px" y="0px"
	 width="300px" height="237px" viewBox="0 0 300 237" enable-background="new 0 0 300 237" xml:space="preserve">
<g>
	<path fill="#FFFFFF" d="M206.661,121.113c-0.587-0.54-1.093-0.764-1.539-0.951c-4.462-1.863-9.304,13.47-9.304,13.47
		c-1.137,3.897,1.162,3.784,1.162,3.784c2.107,0.133,5.222-3.385,5.822-4.314c0.604-0.931,1.51-3.808,1.51-3.808
		c0.693-2.333,1.52-4.787,2.426-7.287l-0.004,0.002C206.96,121.418,206.721,121.177,206.661,121.113z"/>
	<path fill="#FFFFFF" d="M154.902,132.684c0.062-0.677-0.366-0.81-0.752-0.651c-0.375,0.149-0.811,0.541-0.811,0.541
		c-4.343,3.967-7.344,13.008-7.565,13.688c0,0.001-0.052,0.132,0.039,0.187c0.038,0.021,0.097,0.02,0.207-0.073
		c0,0-0.002,0.004-0.003,0.006C154.359,139.175,154.902,132.684,154.902,132.684z"/>
	<path fill="#FFFFFF" d="M122.654,135.174c-0.901,0.15-1.232,1.626-1.232,1.626c-0.818,3.388,1.412,4.777,1.412,4.777
		c0.21,0.128,0.385,0.224,0.569,0.313c0.056,0.021,0.339,0.11,0.44-0.262c0.788-3.003,0.644-4.357,0.644-4.357
		C124.212,134.965,122.654,135.174,122.654,135.174z"/>
	<path fill="#FFFFFF" d="M226.117,116.774c-0.241-0.352-0.443,0.126-0.443,0.126l0,0c-2.008,5.403-3.828,8.675-4.462,9.741
		c0,0-0.231,0.42-0.084,0.76c1.381,3.029,5.483,2.104,5.483,2.104c4.324-1.261,3.433-5.572,3.433-5.572
		C229.549,122.009,227.527,118.835,226.117,116.774z"/>
	<path fill="#FFFFFF" d="M244.723,126.13c-0.258,0-0.438,0.024-0.541,0.052v1.203h0.463c0.537,0,0.975-0.179,0.975-0.613
		C245.618,126.387,245.335,126.13,244.723,126.13z"/>
	<path fill="#FFFFFF" d="M244.824,124.207h-0.025c-1.82,0-3.23,1.514-3.23,3.357c0,1.871,1.41,3.357,3.283,3.357
		c1.817,0.025,3.203-1.486,3.203-3.333C248.055,125.721,246.669,124.207,244.824,124.207z M245.824,129.744
		c-0.129-0.154-0.206-0.514-0.336-1.026c-0.075-0.435-0.334-0.641-0.869-0.641h-0.463v1.667h-0.973v-4.205
		c0.385-0.051,0.922-0.127,1.614-0.127c0.794,0,1.153,0.127,1.433,0.333c0.258,0.179,0.438,0.487,0.438,0.896
		c0,0.514-0.386,0.848-0.871,1v0.053c0.409,0.129,0.613,0.461,0.742,1.023c0.129,0.643,0.231,0.872,0.31,1.026L245.824,129.744
		L245.824,129.744z"/>
	<path fill="#FFFFFF" d="M290.746,187.372V51.222c0-7.893-7.178-10.403-7.178-10.403L159.127,10.712c-9.464-1.974-17.444,0-17.444,0
		L18.983,40.91l-2.478,0.6c0,0-6.749,2.362-7.155,9.705C9.268,52.05,9.3,52.58,9.3,52.58L9.254,185.398
		c0,10.402,8.297,11.84,8.297,11.84l124.31,29.21c8.251,1.614,17.266,0,17.266,0l123.189-29.21
		C290.926,195.624,290.746,187.372,290.746,187.372z M193.521,30.018c0.004,0.021,0.004,0.043,0.006,0.064
		C193.525,30.06,193.525,30.041,193.521,30.018L193.521,30.018z M188.88,78.045v0.002l3.729-24.623
		c0.002-0.014,0.164-0.953,0.979-0.953h9.682c0.834,0,0.994,0.946,0.994,0.946l3.817,22.447c0.167,0.993-0.817,1.104-0.817,1.104
		v0.002c-2.022,0.192-4.021,0.39-5.994,0.594v-0.002c-0.789,0.081-0.967-0.736-0.967-0.736l0,0l-0.313-2.062
		c-0.443-2.861-0.888-6.782-1.289-11.291v0.001c-0.063-0.725-0.202-0.734-0.212-0.734c-0.139,0-0.189,0.367-0.209,0.581
		c-0.407,5.529-0.643,7.603-1.108,11.443l-0.319,2.392c-0.119,0.862-0.93,0.981-0.93,0.981l0.003,0.001
		c-2.12,0.235-4.212,0.478-6.271,0.726v-0.003C188.758,78.968,188.88,78.045,188.88,78.045z M175.234,53.364
		c0.025-0.202,0.164-0.887,0.938-0.887l-0.003-0.007h6.891l-0.002,0.007c0.78,0,0.916,0.702,0.938,0.896v24.99
		c0,1.225-0.926,1.323-0.926,1.323v0.003c-2.391,0.312-4.738,0.632-7.041,0.96v-0.002c-0.771,0.109-0.795-0.759-0.795-0.759V53.364
		L175.234,53.364z M146.216,53.418c0,0,0.027-0.912,0.968-0.947h10.382c7.084,0,9.976,0.72,11.881,3.117
		c2.056,2.477,2.589,5.592,2.589,15.34v9.478c0,0.812-0.797,0.942-0.797,0.942l0.003,0.003c-2.415,0.363-4.789,0.734-7.109,1.113
		l0,0c-0.797,0.129-0.854-0.87-0.854-0.87V67.972c0-7.031-1.066-8.469-6.168-8.469h-1.34c-0.797,0-0.793,0.905-0.793,0.905V83.06
		c0,1.008-0.912,1.146-0.912,1.146v0.002c-2.369,0.435-4.683,0.876-6.94,1.322v-0.002c-0.862,0.17-0.909-0.925-0.909-0.925
		L146.216,53.418L146.216,53.418z M119.787,53.418c0,0,0.006-0.909,0.938-0.947h21.572c0,0,1.026,0.021,1.026,0.947V60.1
		c0,0.921-1.026,0.92-1.026,0.92h-12.846c-0.919,0-0.904,0.954-0.904,0.954v11.703c0,0-0.001,0.847,0.861,0.847H141.4
		c0,0,1.084,0.03,1.084,1.038v5.689c0,1.018-1.084,1.022-1.084,1.022h-11.993c-0.855,0-0.861,0.812-0.861,0.812v5.533
		c0,0.976-0.905,1.214-0.905,1.214v0.001c-2.404,0.591-4.727,1.185-6.97,1.781v-0.002c-0.868,0.229-0.885-0.787-0.885-0.787
		L119.787,53.418L119.787,53.418z M79.952,53.418c0,0,0.038-0.947,0.943-0.947h-0.001h11.734c0,0,0.806,0.001,0.957,0.946
		l2.667,16.792c0.566,3.418,1.001,6.908,1.489,11.945v0.001c0.017,0.188,0.036,0.381,0.055,0.572
		c0.03,0.195,0.075,0.283,0.128-0.088c0.018-0.159,0.036-0.326,0.052-0.479c0.001-0.003,0.001-0.004,0.001-0.006
		c0.591-5.43,0.837-7.532,1.55-11.945l2.667-16.792c0.001-0.007,0.16-0.946,0.999-0.946h11.847c0,0,0.939,0.017,0.939,0.947v38.431
		c0,1.098-1.023,1.334-1.023,1.334l0.001,0.001c-2.144,0.609-4.208,1.219-6.193,1.825v-0.003c-1.143,0.348-1.165-1.024-1.165-1.024
		V78.039c0-2.389,0.102-6.994,0.237-10.943c-0.01-0.001-0.022-0.005-0.022-0.005s0.071-1.002-0.183-1.02
		c0,0-0.324-0.084-0.421,0.946l-0.01-0.014c-0.725,4.262-1.246,7.35-1.809,10.476l-3.242,18.522
		c-0.207,1.181-1.196,1.509-1.196,1.509l-0.001,0.003c-1.85,0.622-3.618,1.239-5.302,1.847v-0.001
		c-1.171,0.42-1.51-0.951-1.513-0.962l-3.75-21.638c-0.305-2.076-0.686-4.154-1.067-6.231l-0.608-3.675
		c-0.02-0.108-0.036-0.211-0.055-0.316c-0.134-0.51-0.34-0.466-0.34-0.466c-0.207,0.014-0.198,0.679-0.188,0.925l0.004,0.085
		c0,0.001,0,0.01,0,0.01l0.045,0.961c0.076,1.757,0.152,5.913,0.152,8.708v23.818c0,1.558-1.252,2.069-1.252,2.069l0.001,0.003
		c-2.142,0.875-4.107,1.718-5.884,2.518v-0.001c-1.211,0.539-1.244-1.062-1.244-1.062L79.952,53.418L79.952,53.418z M96.433,197.463
		c0.02,2.523-1.389,2.52-1.389,2.52c-6.277,0.129-9.997-3.539-9.997-3.539c-2.428-2.1-1.802-6.297-1.802-6.297
		c2.15-14.871,9.998-33.047,9.998-33.047c8.324-20.701,21.764-41.492,25.64-47.31c0.129-0.194,0.254-0.381,0.131-0.557
		c-0.084-0.121-0.235-0.1-0.325-0.072c-36.588,14.099-47.595,26.368-47.595,26.368c-1.832,1.697-2.931,0.529-3.467-1.035
		c-0.393-1.146-0.388-2.536-0.388-2.536c-0.016-6.976,2.392-11.21,3.759-13.784c1.368-2.575,4.543-4.568,4.543-4.568
		c44.093-24,130.061-32.693,130.061-32.693c3.366-0.348,4.252,0.251,4.252,0.251c1.375,0.858,2.222,1.932,2.222,1.932
		c0.817,1.239-1.343,1.598-1.343,1.598c-40.078,6.63-71.443,16.486-80.915,20.385c-0.588,0.243-1.019,0.757-1.124,0.909
		c-13.402,20.794-25.926,55.991-25.926,55.991C96.156,181.175,96.433,197.463,96.433,197.463z M236.061,129.629
		c-1.873,5.256-9.263,6.587-9.263,6.587c-5.772,1.06-8.271-2.5-8.883-3.569c-0.142-0.295-0.411,0-0.411,0v-0.002
		c-3.82,4.438-6.011,6.623-6.011,6.623c-2.813,2.602-5.211,2.723-5.211,2.723c-1.835,0.111-2.699-1.371-3.005-2.146v0.002
		c-0.176-0.547-0.658,0-0.658,0v-0.002c-6.033,6.217-10.049,6.137-10.049,6.137c-1.872-0.072-2.729-1.375-3.225-3.062l-0.005,0.001
		c-0.153-0.461-0.42-0.182-0.528-0.037c-0.018,0.021-0.029,0.042-0.047,0.062c-0.002,0.007-0.006,0.01-0.006,0.01
		c-1.992,2.814-4.105,4.854-4.105,4.854c-2.997,2.783-5.674,2.145-5.674,2.145c-2.084-0.325-2.75-1.579-2.896-1.809
		c-2.396-3.715,5.708-20.012,5.708-20.012c0.672-1.408,0.38-1.826,0.38-1.826c-1.281-0.643-5.688,3.07-5.688,3.07
		c-2.82,2.479-4.299,4.801-5.666,8.385c-0.266,0.692-0.356,1.135-0.356,1.135c-1.627,6.99-3.133,12.528-3.133,12.528
		c-0.578,2.123-2.207,3.229-2.207,3.229c-4.042,2.861-6.416,2.392-6.416,2.392c-1.222-0.254-0.226-2.435-0.226-2.435
		c1.481-3.527,2.709-7.178,3.811-10.578c0.466-1.439-0.361-0.047-0.361-0.047v-0.002c-5.8,9.609-13.07,16.406-13.07,16.406
		c-3.001,2.711-6.92,1.444-7.139,1.375c-1.395-0.365-2.357-1.697-2.806-2.978h-0.001c-0.133-0.354-0.438,0.03-0.438,0.03
		c-3.5,4.492-7.286,7.914-7.286,7.914c-2.188,1.994-4.399,2.041-4.399,2.041c-2.784,0.055-2.63-4.067-2.63-4.067
		c0.428-7.188,6.24-16.052,6.24-16.052c0.283-0.422-0.062-0.84-0.062-0.84c-0.17-0.221-0.549-0.157-0.549-0.157
		c-1.31,0.286-2.463,0.42-3.458,0.46h0.002c-0.483,0.027-0.703,0.583-0.703,0.583l0,0c-7.015,18.333-13.798,23.454-13.798,23.454
		c-2.1,1.736-3.678,1.521-3.678,1.521c-5.047-0.522-4.502-5.401-4.502-5.401c0.014-1.166,1.264-1.521,1.264-1.521
		c9.984-3.673,15.919-17.102,15.919-17.102c0.214-0.461,0.412-0.9,0.601-1.332c0.346-0.822-0.189-1.115-0.189-1.115l0.005-0.005
		c-7.473-4.384-3.217-13.494-3.217-13.494c1.49-3.095,4.257-3.619,4.257-3.619c2.096-0.576,3.678,0.265,3.678,0.265
		c4.493,1.887,2.047,11.592,2.047,11.592c-0.05,0.246-0.07,0.354-0.094,0.449c-0.024,0.188,0.014,0.354,0.259,0.348
		c3.073-0.276,5.379-1.898,5.379-1.898c1.03-0.683,1.491-0.152,1.876,0.368c0.386,0.521,1.17,2.885,1.346,3.67
		c0.176,0.787-0.367,1.785-0.367,1.785c-2.877,4.72-5.722,10.438-5.722,10.438c-0.251,0.553-0.427,1.023-0.557,1.441
		c-0.108,0.414-0.464,2.018,0.531,2.203c0,0,0.818,0.146,2.155-0.973c0,0,3.158-2.721,4.979-4.789c0,0,0.405-0.394,0.435-1.178
		h0.001c0.121-6.074,2.834-12.435,2.834-12.435c5.352-11.562,11.735-13.108,11.735-13.108c2.767-1.066,4.785,0,4.785,0
		c1.562,0.705,1.602,2.506,1.602,2.506c-0.039,5.853-3.959,11.578-3.959,11.578c-3.34,5.117-7.11,8.158-8.852,9.594
		c0,0-0.28,0.252-0.169,0.561c0.434,1.253,0.902,1.572,0.902,1.572c1.242,0.882,3.833-1.915,3.833-1.915
		c7.47-7.616,13.631-19.443,15.72-23.778c0.522-1.087,0.608-1.514,0.616-1.529c0.229-0.858,0.389-2.457,0.389-2.457
		c0.098-1.588,4.643-3.066,4.643-3.066c2.367-0.629,1.556,3.203,1.556,3.203c-0.216,1.02-0.194,0.826-0.505,2.144l-0.122,0.515
		c0,0-0.181,0.754,0.122,0.277c2.494-3.484,5.861-6.179,5.861-6.179c4.365-3.242,7.096-1.464,7.096-1.464
		c3.268,1.707,0.042,9.09,0.042,9.09c-2.326,5.684-3.277,8.934-3.277,8.934c-1.262,3.998,0.313,4.133,0.313,4.133
		c1.443,0.256,4.053-2.849,5.238-4.4c0.348-0.444,0.397-1.082,0.397-1.082l0,0c0.254-2.514,0.742-4.541,0.742-4.541
		c4.096-14.806,13.137-17.645,13.137-17.645c2.589-0.877,4.802,0.116,5.882,1.057v-0.002c0,0,0.354,0.306,0.562-0.219l0,0
		c6.213-15.444,14.094-30.555,14.094-30.555c1.195-2.281,2.814-3.082,2.814-3.082c5.858-3.175,8.929-1.049,8.929-1.049
		c1.307,0.679-1.739,4.168-1.739,4.168c-12.018,13.263-24.134,46.767-24.134,46.767c-0.81,2.357,0.282,2.564,0.282,2.564
		c1.326,0.4,4.502-3.466,4.502-3.466c3.521-4.054,7.832-14.392,9.082-17.895c0.166-0.469,0.01-0.919,0.01-0.919l0.003-0.001
		c-1.06-3.351-0.167-5.882-0.167-5.882c1.781-5.387,6.086-4.507,6.086-4.507c4.089,0.754,1.531,9.525,1.531,9.525
		c-0.342,1.114-0.086,1.77-0.086,1.77c1.283,3.297,4.873,10.835,4.873,10.835C236.966,126.764,236.061,129.629,236.061,129.629z
		 M244.824,131.794c-2.409,0-4.333-1.871-4.333-4.229c0-2.357,1.924-4.203,4.333-4.203h0.025c2.381,0,4.278,1.846,4.278,4.203
		C249.129,129.923,247.23,131.794,244.824,131.794z"/>
</g>
</svg>
